<svg width="1280" height="720" xmlns="http://www.w3.org/2000/svg" xmlns:xlink="http://www.w3.org/1999/xlink" overflow="hidden"><defs><clipPath id="clip0"><rect x="0" y="0" width="1280" height="720"/></clipPath></defs><g clip-path="url(#clip0)"><rect x="0" y="0" width="1280" height="720" fill="#FFFFFF"/><text font-family="Calibri,Calibri_MSFontService,sans-serif" font-weight="400" font-size="24" transform="translate(843.681 528)">C# Parser handwritten sources<tspan font-size="24" x="-249.025" y="-445">Metaparser sources (C#)</tspan><tspan font-size="24" x="-452.224" y="-172">C# </tspan>ParserGenerator<tspan font-size="24" x="-255.764" y="-172">sources</tspan><tspan font-size="24" x="-488.444" y="-5">C# Parser </tspan>codegenned<tspan font-size="24" x="-265.77" y="-5">sources</tspan><tspan font-size="24" x="-749.068" y="-206">Expanded test cases</tspan><tspan font-size="24" x="-749.829" y="-411">Test case templates</tspan><tspan font-size="24" x="-749.829" y="-140">DTDL language docs</tspan><tspan font-size="24" x="15.8806" y="-306">Markdown C# Parser Sample docs</tspan><tspan font-size="24" x="88.0577" y="-166">C# Sample projects</tspan><tspan font-size="24" x="-749.829" y="-238">Metamodel Digest</tspan><tspan font-size="24" x="-190.55" y="141">C# Parser API reference docs</tspan><tspan font-size="24" x="-190.55" y="105">C# Parser NuGet package</tspan><tspan font-size="24" x="-749.829" y="-377">DTDL language proto</tspan><tspan font-size="24" x="-545.583" y="-377">-</tspan><tspan font-size="24" x="-538.249" y="-377">docs</tspan><tspan font-size="24" x="-249.025" y="-377">DocumentationGenerator</tspan><tspan font-size="24" x="7.96191" y="-377">sources (C#)</tspan><tspan font-size="24" x="-443.877" y="-237">C# </tspan>SampleGenerator<tspan font-size="24" x="-236.49" y="-237">sources</tspan><tspan font-size="24" x="-249.025" y="-411">TestCaseGenerator</tspan><tspan font-size="24" x="-59.5381" y="-411">sources (C#)</tspan><tspan font-size="24" x="-452.224" y="-142">C# </tspan>UnitTestGenerator<tspan font-size="24" x="-236.571" y="-142">sources</tspan><tspan font-size="24" x="0" y="30">C# </tspan><tspan font-size="24" x="30.3334" y="30">ParserUnitTest</tspan><tspan font-size="24" x="176.84" y="30">handwritten sources</tspan><tspan font-size="24" x="-489.204" y="30">C# </tspan><tspan font-size="24" x="-458.871" y="30">ParserUnitTest</tspan><tspan font-size="24" x="-312.364" y="30">codegenned</tspan><tspan font-size="24" x="-186.431" y="30">sources</tspan><tspan font-size="24" x="-749.068" y="-173">Doc example test cases</tspan><tspan font-size="24" x="-749.829" y="-445">DTDL Metamodel</tspan></text><rect x="585.5" y="56.5001" width="393" height="107" stroke="#000000" stroke-width="1.33333" stroke-miterlimit="8" fill="none"/><path d="M82.5001 74.3336C82.5001 64.4844 90.4844 56.5001 100.334 56.5001L348.667 56.5001C358.516 56.5001 366.5 64.4844 366.5 74.3336L366.5 145.666C366.5 155.516 358.516 163.5 348.667 163.5L100.334 163.5C90.4844 163.5 82.5001 155.516 82.5001 145.666Z" stroke="#000000" stroke-width="1.33333" stroke-miterlimit="8" fill="none" fill-rule="evenodd"/><path d="M82.5001 287.167C82.5001 274.648 92.6485 264.5 105.167 264.5L307.833 264.5C320.352 264.5 330.5 274.648 330.5 287.167L330.5 377.833C330.5 390.352 320.352 400.5 307.833 400.5L105.167 400.5C92.6485 400.5 82.5001 390.352 82.5001 377.833Z" stroke="#000000" stroke-width="1.33333" stroke-miterlimit="8" fill="none" fill-rule="evenodd"/><rect x="381.5" y="330.5" width="312" height="71" stroke="#000000" stroke-width="1.33333" stroke-miterlimit="8" fill="none"/><rect x="345.5" y="500.5" width="393" height="71" stroke="#000000" stroke-width="1.33333" stroke-miterlimit="8" fill="none"/><rect x="838.5" y="500.5" width="392" height="71" stroke="#000000" stroke-width="1.33333" stroke-miterlimit="8" fill="none"/><rect x="391.5" y="264.5" width="296" height="40" stroke="#000000" stroke-width="1.33333" stroke-miterlimit="8" fill="none"/><path d="M850.5 212.843C850.5 204.369 857.369 197.5 865.843 197.5L1188.16 197.5C1196.63 197.5 1203.5 204.369 1203.5 212.843L1203.5 219.157C1203.5 227.631 1196.63 234.5 1188.16 234.5L865.843 234.5C857.369 234.5 850.5 227.631 850.5 219.157Z" stroke="#000000" stroke-width="1.33333" stroke-miterlimit="8" fill="none" fill-rule="evenodd"/><rect x="923.5" y="336.5" width="206" height="40" stroke="#000000" stroke-width="1.33333" stroke-miterlimit="8" fill="none"/><path d="M644.5 628.631C644.5 618.065 653.065 609.5 663.631 609.5L925.369 609.5C935.935 609.5 944.5 618.065 944.5 628.631L944.5 660.369C944.5 670.935 935.935 679.5 925.369 679.5L663.631 679.5C653.065 679.5 644.5 670.935 644.5 660.369Z" stroke="#000000" stroke-width="1.33333" stroke-miterlimit="8" fill="none" fill-rule="evenodd"/><path d="M187.5 213.5C187.5 201.902 197.126 192.5 209 192.5 220.874 192.5 230.5 201.902 230.5 213.5 230.5 225.098 220.874 234.5 209 234.5 197.126 234.5 187.5 225.098 187.5 213.5Z" stroke="#000000" stroke-width="1.33333" stroke-miterlimit="8" fill="none" fill-rule="evenodd"/><path d="M195.5 179.5 202.5 179.5 202.5 164.5 216.5 164.5 216.5 179.5 223.5 179.5 209.5 193.5Z" stroke="#000000" stroke-width="1.33333" stroke-miterlimit="8" fill="none" fill-rule="evenodd"/><path d="M195.5 249.5 202.5 249.5 202.5 234.5 216.5 234.5 216.5 249.5 223.5 249.5 209.5 263.5Z" stroke="#000000" stroke-width="1.33333" stroke-miterlimit="8" fill="none" fill-rule="evenodd"/><path d="M789.5 164.5 789.5 192.178C789.5 207.4 777.16 219.74 761.938 219.74L250.008 219.74 250.008 227.5 232.5 213.253 250.008 199.006 250.008 206.767 761.938 206.767C769.995 206.767 776.527 200.235 776.527 192.178L776.527 164.5Z" stroke="#000000" stroke-width="1.33333" stroke-miterlimit="8" fill="none" fill-rule="evenodd"/><path d="M0 21C-2.67358e-15 9.40202 9.40202-2.67358e-15 21-5.34716e-15 32.598-1.06943e-14 42 9.40202 42 21 42 32.598 32.598 42 21 42 9.40202 42-1.33679e-14 32.598 0 21Z" stroke="#000000" stroke-width="1.33333" stroke-miterlimit="8" fill="none" fill-rule="evenodd" transform="matrix(-1 0 0 1 559.5 429.5)"/><path d="M0 14.5 7.25 14.5 7.25 0 21.75 0 21.75 14.5 29 14.5 14.5 29Z" stroke="#000000" stroke-width="1.33333" stroke-miterlimit="8" fill="none" fill-rule="evenodd" transform="matrix(-1 0 0 1 552.5 401.5)"/><path d="M0 14.5 7.25 14.5 7.25 0 21.75 0 21.75 14.5 29 14.5 14.5 29Z" stroke="#000000" stroke-width="1.33333" stroke-miterlimit="8" fill="none" fill-rule="evenodd" transform="matrix(-1 0 0 1 552.5 471.5)"/><path d="M0 64 0 35.8831C-5.23576e-15 20.4192 12.536 7.8832 27.9999 7.8832L311.214 7.8832 311.214 0 329 14.4729 311.214 28.9458 311.214 21.0626 27.9999 21.0626C19.8148 21.0626 13.1794 27.698 13.1794 35.8831L13.1794 64Z" stroke="#000000" stroke-width="1.33333" stroke-miterlimit="8" fill="none" fill-rule="evenodd" transform="matrix(1 -1.22465e-16 -1.22465e-16 -1 187.5 464.5)"/><text font-family="Calibri,Calibri_MSFontService,sans-serif" font-weight="400" font-size="19" transform="translate(49.3028 205)">DTDL Metaparser<tspan font-size="19" x="9.49333" y="23">PR pipeline job</tspan><tspan font-size="19" x="615.239" y="252">DTDL Parser .NET PR pipeline job</tspan></text><path d="M0 21C-2.67358e-15 9.40202 9.40202-2.67358e-15 21-5.34716e-15 32.598-1.06943e-14 42 9.40202 42 21 42 32.598 32.598 42 21 42 9.40202 42-1.33679e-14 32.598 0 21Z" stroke="#000000" stroke-width="1.33333" stroke-miterlimit="8" fill="none" fill-rule="evenodd" transform="matrix(-1 0 0 1 1047.5 262.5)"/><path d="M0 14.5 7.25 14.5 7.25 0 21.75 0 21.75 14.5 29 14.5 14.5 29Z" stroke="#000000" stroke-width="1.33333" stroke-miterlimit="8" fill="none" fill-rule="evenodd" transform="matrix(-1 0 0 1 1040.5 234.5)"/><path d="M0 14.5 7.25 14.5 7.25 0 21.75 0 21.75 14.5 29 14.5 14.5 29Z" stroke="#000000" stroke-width="1.33333" stroke-miterlimit="8" fill="none" fill-rule="evenodd" transform="matrix(-1 0 0 1 1040.5 304.5)"/><path d="M0 305.5 7.25009 305.5 7.25009 0 21.7499 0 21.7499 305.5 29 305.5 14.5002 320Z" stroke="#000000" stroke-width="1.33333" stroke-miterlimit="8" fill="none" fill-rule="evenodd" transform="matrix(1.83697e-16 1 1 -1.83697e-16 686.5 269.5)"/><text font-family="Calibri,Calibri_MSFontService,sans-serif" font-weight="400" font-size="19" transform="translate(1058.8 276)">DTDL Parser .NET<tspan font-size="19" x="8.62" y="23">PR pipeline job</tspan></text><path d="M0 21C-2.67358e-15 9.40202 9.40202-2.67358e-15 21-5.34716e-15 32.598-1.06943e-14 42 9.40202 42 21 42 32.598 32.598 42 21 42 9.40202 42-1.33679e-14 32.598 0 21Z" stroke="#000000" stroke-width="1.33333" stroke-miterlimit="8" fill="none" fill-rule="evenodd" transform="matrix(-6.12323e-17 -1 -1 6.12323e-17 810.5 559.5)"/><path d="M0 15.5 7.25 15.5 7.25 0 21.75 0 21.75 15.5 29 15.5 14.5 30Z" stroke="#000000" stroke-width="1.33333" stroke-miterlimit="8" fill="none" fill-rule="evenodd" transform="matrix(-6.12323e-17 -1 -1 6.12323e-17 838.5 552.5)"/><path d="M753.5 552.5 753.5 545.25 739.5 545.25 739.5 530.75 753.5 530.75 753.5 523.5 767.5 538Z" stroke="#000000" stroke-width="1.33333" stroke-miterlimit="8" fill="none" fill-rule="evenodd"/><path d="M0 35 7.00003 35 7.00003 0 21 0 21 35 28 35 14 49Z" stroke="#000000" stroke-width="1.33333" stroke-miterlimit="8" fill="none" fill-rule="evenodd" transform="matrix(-1 0 0 1 803.5 558.5)"/><path d="M654.307 452.481 573.818 452.172 573.823 450.838 654.312 451.148ZM581.464 456.777 572.497 451.5 581.504 446.292C581.823 446.108 582.231 446.217 582.415 446.536 582.599 446.854 582.49 447.262 582.172 447.446L574.154 452.082 574.158 450.931 582.14 455.628C582.458 455.815 582.563 456.223 582.377 456.541 582.19 456.858 581.781 456.964 581.464 456.777Z"/><path d="M790.167 468.494 790.493 503.498 789.16 503.51 788.833 468.506ZM794.997 495.791 789.839 504.827 784.513 495.889C784.324 495.573 784.428 495.163 784.744 494.975 785.06 494.786 785.47 494.89 785.658 495.206L790.399 503.163 789.247 503.173 793.839 495.13C794.022 494.81 794.429 494.699 794.749 494.882 795.069 495.064 795.18 495.471 794.997 495.791Z"/><path d="M0.114647-0.656735 194.321 33.2462 194.092 34.5597-0.114647 0.656735ZM187.556 27.4201 195.508 34.1301 185.753 37.749C185.408 37.877 185.024 37.701 184.896 37.3558 184.768 37.0106 184.944 36.627 185.289 36.4989L193.973 33.2775 193.774 34.4121 186.696 28.4392C186.415 28.2017 186.379 27.7811 186.617 27.4997 186.854 27.2183 187.275 27.1827 187.556 27.4201Z" transform="matrix(1 0 0 -1 789.5 341.63)"/><path d="M0 0 0.000104987 94.0757" stroke="#000000" stroke-width="1.33333" stroke-miterlimit="8" fill="none" fill-rule="evenodd" transform="matrix(1 0 0 -1 789.5 435.576)"/></g></svg>