<svg width="1280" height="500" xmlns="http://www.w3.org/2000/svg" xmlns:xlink="http://www.w3.org/1999/xlink" overflow="hidden"><defs><clipPath id="clip0"><rect x="0" y="0" width="1280" height="720"/></clipPath></defs><g clip-path="url(#clip0)"><rect x="0" y="0" width="1280" height="720" fill="#FFFFFF"/><path d="M933.875 284.5C930.216 284.5 927.25 296.365 927.25 311 927.25 325.636 930.216 337.5 933.875 337.5L717.125 337.5C713.466 337.5 710.5 325.636 710.5 311 710.5 296.364 713.466 284.5 717.125 284.5Z" fill="#00B050" fill-rule="evenodd"/><path d="M933.875 284.5C937.534 284.5 940.5 296.365 940.5 311 940.5 325.636 937.534 337.5 933.875 337.5 930.216 337.5 927.25 325.636 927.25 311 927.25 296.365 930.216 284.5 933.875 284.5Z" fill="#66D096" fill-rule="evenodd"/><path d="M933.875 337.5C930.216 337.5 927.25 325.636 927.25 311 927.25 296.364 930.216 284.5 933.875 284.5 937.534 284.5 940.5 296.364 940.5 311 940.5 325.636 937.534 337.5 933.875 337.5L717.125 337.5C713.466 337.5 710.5 325.636 710.5 311 710.5 296.364 713.466 284.5 717.125 284.5L933.875 284.5" stroke="#2F528F" stroke-width="1.33333" stroke-miterlimit="8" fill="none" fill-rule="evenodd"/><text fill="#FFFFFF" font-family="Calibri,Calibri_MSFontService,sans-serif" font-weight="400" font-size="24" transform="translate(717.518 318)">Parser</text><text fill="#FFFFFF" font-family="Calibri,Calibri_MSFontService,sans-serif" font-weight="400" font-size="24" transform="translate(778.424 318)">-</text><text fill="#FFFFFF" font-family="Calibri,Calibri_MSFontService,sans-serif" font-weight="400" font-size="24" transform="translate(785.758 318)">vNext</text><text fill="#FFFFFF" font-family="Calibri,Calibri_MSFontService,sans-serif" font-weight="400" font-size="24" transform="translate(842.138 318)">-</text><text fill="#FFFFFF" font-family="Calibri,Calibri_MSFontService,sans-serif" font-weight="400" font-size="24" transform="translate(849.471 318)">shadow</text><path d="M391 150.5C387.41 150.5 384.5 162.141 384.5 176.5 384.5 190.86 387.41 202.5 391 202.5L175 202.5C171.41 202.5 168.5 190.86 168.5 176.5 168.5 162.141 171.41 150.5 175 150.5Z" fill="#00B050" fill-rule="evenodd"/><path d="M391 150.5C394.59 150.5 397.5 162.141 397.5 176.5 397.5 190.86 394.59 202.5 391 202.5 387.41 202.5 384.5 190.86 384.5 176.5 384.5 162.141 387.41 150.5 391 150.5Z" fill="#66D096" fill-rule="evenodd"/><path d="M391 202.5C387.41 202.5 384.5 190.86 384.5 176.5 384.5 162.141 387.41 150.5 391 150.5 394.59 150.5 397.5 162.141 397.5 176.5 397.5 190.86 394.59 202.5 391 202.5L175 202.5C171.41 202.5 168.5 190.86 168.5 176.5 168.5 162.141 171.41 150.5 175 150.5L391 150.5" stroke="#2F528F" stroke-width="1.33333" stroke-miterlimit="8" fill="none" fill-rule="evenodd"/><text fill="#FFFFFF" font-family="Calibri,Calibri_MSFontService,sans-serif" font-weight="400" font-size="24" transform="translate(232.384 183)">Parser</text><text fill="#FFFFFF" font-family="Calibri,Calibri_MSFontService,sans-serif" font-weight="400" font-size="24" transform="translate(293.29 183)">-</text><text fill="#FFFFFF" font-family="Calibri,Calibri_MSFontService,sans-serif" font-weight="400" font-size="24" transform="translate(300.624 183)">PR</text><path d="M653 395.5C649.41 395.5 646.5 407.141 646.5 421.5 646.5 435.859 649.41 447.5 653 447.5L437 447.5C433.41 447.5 430.5 435.859 430.5 421.5 430.5 407.141 433.41 395.5 437 395.5Z" fill="#00B050" fill-rule="evenodd"/><path d="M653 395.5C656.59 395.5 659.5 407.141 659.5 421.5 659.5 435.859 656.59 447.5 653 447.5 649.41 447.5 646.5 435.859 646.5 421.5 646.5 407.141 649.41 395.5 653 395.5Z" fill="#66D096" fill-rule="evenodd"/><path d="M653 447.5C649.41 447.5 646.5 435.859 646.5 421.5 646.5 407.141 649.41 395.5 653 395.5 656.59 395.5 659.5 407.141 659.5 421.5 659.5 435.859 656.59 447.5 653 447.5L437 447.5C433.41 447.5 430.5 435.859 430.5 421.5 430.5 407.141 433.41 395.5 437 395.5L653 395.5" stroke="#2F528F" stroke-width="1.33333" stroke-miterlimit="8" fill="none" fill-rule="evenodd"/><text fill="#FFFFFF" font-family="Calibri,Calibri_MSFontService,sans-serif" font-weight="400" font-size="24" transform="translate(497.683 428)">Parser</text><text fill="#FFFFFF" font-family="Calibri,Calibri_MSFontService,sans-serif" font-weight="400" font-size="24" transform="translate(558.59 428)">-</text><text fill="#FFFFFF" font-family="Calibri,Calibri_MSFontService,sans-serif" font-weight="400" font-size="24" transform="translate(565.923 428)">CI</text><path d="M482.5 174.5C482.5 164.007 491.007 155.5 501.5 155.5L589.5 155.5C599.994 155.5 608.5 164.007 608.5 174.5L608.5 174.5C608.5 184.994 599.993 193.5 589.5 193.5L501.5 193.5C491.007 193.5 482.5 184.993 482.5 174.5Z" stroke="#2F528F" stroke-width="1.33333" stroke-miterlimit="8" fill="#767171" fill-rule="evenodd"/><text fill="#FFFFFF" font-family="Calibri,Calibri_MSFontService,sans-serif" font-weight="400" font-size="24" transform="translate(508.147 182)">sync PR</text><rect x="450.5" y="291" width="169.5" height="61.4999" fill="#00B050"/><path d="M620 291 640.5 270.5 640.5 332 620 352.5Z" fill="#008D40" fill-rule="evenodd"/><path d="M450.5 291 471 270.5 640.5 270.5 620 291Z" fill="#32BF72" fill-rule="evenodd"/><path d="M450.5 291 471 270.5 640.5 270.5 640.5 332 620 352.5 450.5 352.5ZM450.5 291 620 291 640.5 270.5M620 291 620 352.5" stroke="#2F528F" stroke-width="1.33333" stroke-miterlimit="8" fill="none" fill-rule="evenodd"/><text fill="#FFFFFF" font-family="Calibri,Calibri_MSFontService,sans-serif" font-weight="400" font-size="24" transform="translate(464.295 326)">Parser “main”</text><rect x="1008.5" y="291" width="169.5" height="61.4999" fill="#00B050"/><path d="M1178 291 1198.5 270.5 1198.5 332 1178 352.5Z" fill="#008D40" fill-rule="evenodd"/><path d="M1008.5 291 1029 270.5 1198.5 270.5 1178 291Z" fill="#32BF72" fill-rule="evenodd"/><path d="M1008.5 291 1029 270.5 1198.5 270.5 1198.5 332 1178 352.5 1008.5 352.5ZM1008.5 291 1178 291 1198.5 270.5M1178 291 1178 352.5" stroke="#2F528F" stroke-width="1.33333" stroke-miterlimit="8" fill="none" fill-rule="evenodd"/><text fill="#FFFFFF" font-family="Calibri,Calibri_MSFontService,sans-serif" font-weight="400" font-size="24" transform="translate(1018.75 326)">Parser “vNext”</text><path d="M227.5 311C227.5 300.23 236.23 291.5 247 291.5L334 291.5C344.77 291.5 353.5 300.23 353.5 311L353.5 311C353.5 321.77 344.77 330.5 334 330.5L247 330.5C236.23 330.5 227.5 321.77 227.5 311Z" stroke="#2F528F" stroke-width="1.33333" stroke-miterlimit="8" fill="#00B050" fill-rule="evenodd"/><text fill="#FFFFFF" font-family="Calibri,Calibri_MSFontService,sans-serif" font-weight="400" font-size="24" transform="translate(253.77 318)">user PR</text><path d="M1040.5 174.5C1040.5 164.007 1049.01 155.5 1059.5 155.5L1147.5 155.5C1157.99 155.5 1166.5 164.007 1166.5 174.5L1166.5 174.5C1166.5 184.994 1157.99 193.5 1147.5 193.5L1059.5 193.5C1049.01 193.5 1040.5 184.993 1040.5 174.5Z" stroke="#2F528F" stroke-width="1.33333" stroke-miterlimit="8" fill="#767171" fill-rule="evenodd"/><text fill="#FFFFFF" font-family="Calibri,Calibri_MSFontService,sans-serif" font-weight="400" font-size="24" transform="translate(1066.79 182)">sync PR</text><path d="M552.25 360 552.25 373 560 373 544.5 386 529 373 536.75 373 536.75 360Z" stroke="#000000" stroke-width="2" stroke-miterlimit="8" fill="none" fill-rule="evenodd"/><path d="M575 204 575 243.323 545 259 515 243.323 515 204 545 219.677Z" stroke="#000000" stroke-width="2" stroke-miterlimit="8" fill="none" fill-rule="evenodd"/><text font-family="Calibri,Calibri_MSFontService,sans-serif" font-weight="400" font-size="19" transform="translate(520.304 236)">merge</text><path d="M1134 204 1134 243.323 1103.5 259 1073 243.323 1073 204 1103.5 219.677Z" stroke="#000000" stroke-width="2" stroke-miterlimit="8" fill="none" fill-rule="evenodd"/><text font-family="Calibri,Calibri_MSFontService,sans-serif" font-weight="400" font-size="19" transform="translate(1078.94 236)">merge</text><path d="M659 302.75 680.5 302.75 680.5 295 696 310.5 680.5 326 680.5 318.25 659 318.25Z" stroke="#000000" stroke-width="2" stroke-miterlimit="8" fill="none" fill-rule="evenodd"/><path d="M957 322 978 322 978 314 994 330 978 346 978 338 957 338Z" stroke="#000000" stroke-width="2" stroke-miterlimit="8" fill="#0D0D0D" fill-rule="evenodd"/><path d="M327.25 210 327.25 269.5 335 269.5 319.5 285 304 269.5 311.75 269.5 311.75 210Z" stroke="#000000" stroke-width="2" stroke-miterlimit="8" fill="#0D0D0D" fill-rule="evenodd"/><path d="M261.75 285 261.75 225.5 254 225.5 269.5 210 285 225.5 277.25 225.5 277.25 285Z" stroke="#000000" stroke-width="2" stroke-miterlimit="8" fill="none" fill-rule="evenodd"/><path d="M413 187.75 458.5 187.75 458.5 180 474 195.5 458.5 211 458.5 203.25 413 203.25Z" stroke="#000000" stroke-width="2" stroke-miterlimit="8" fill="#0D0D0D" fill-rule="evenodd"/><path d="M474 160.25 428.5 160.25 428.5 168 413 152.5 428.5 137 428.5 144.75 474 144.75Z" stroke="#000000" stroke-width="2" stroke-miterlimit="8" fill="none" fill-rule="evenodd"/><path d="M373 281 411.608 281 427 311 411.608 341 373 341 388.392 311Z" stroke="#000000" stroke-width="2" stroke-miterlimit="8" fill="none" fill-rule="evenodd"/><text font-family="Calibri,Calibri_MSFontService,sans-serif" font-weight="400" font-size="19" transform="matrix(-1.83697e-16 -1 1 -1.83697e-16 404.428 335)">merge</text><path d="M146 302.75 197.5 302.75 197.5 295 213 310.5 197.5 326 197.5 318.25 146 318.25Z" stroke="#000000" stroke-width="2" stroke-miterlimit="8" fill="#0D0D0D" fill-rule="evenodd"/><path d="M1.8947e-06-1.5 3-1.5 3 1.5-1.8947e-06 1.5ZM6-1.49999 9-1.49999 9 1.50001 6 1.50001ZM12-1.49998 15-1.49998 15 1.50002 12 1.50002ZM18-1.49998 21-1.49997 21 1.50003 18 1.50002ZM24-1.49997 27-1.49997 27 1.50003 24 1.50003ZM30-1.49996 33-1.49996 33 1.50004 30 1.50004ZM36-1.49995 39-1.49995 39 1.50005 36 1.50005ZM42-1.49995 45-1.49994 45 1.50006 42 1.50005ZM48-1.49994 51-1.49994 51 1.50006 48 1.50006ZM54-1.49993 57-1.49993 57 1.50007 54 1.50007ZM60-1.49992 63-1.49992 63 1.50008 60 1.50008ZM66-1.49992 69-1.49991 69 1.50009 66 1.50008ZM72-1.49991 74.116-1.49991 74.116 1.50009 72 1.50009ZM74.116 9.36186e-05 68.116-7.49991 83.116 0.000104987 68.116 7.50009Z" transform="matrix(-1 0 0 1 482.616 174.5)"/><path d="M1.5-1.77158e-06 1.5 3-1.5 3-1.5 1.77158e-06ZM1.50001 6 1.50001 9-1.49999 9-1.49999 6ZM1.50001 12 1.50002 15-1.49998 15-1.49999 12ZM1.50002 18 1.50002 21-1.49998 21-1.49998 18ZM1.50003 24 1.50003 27-1.49997 27-1.49997 24ZM1.50004 30 1.50004 33-1.49996 33-1.49996 30ZM1.50004 36 1.50005 39-1.49995 39-1.49996 36ZM1.50005 42 1.50005 45-1.49995 45-1.49995 42ZM1.50006 48 1.50006 51-1.49994 51-1.49994 48ZM1.50006 54 1.50007 57-1.49993 57-1.49994 54ZM1.50007 60 1.50007 63-1.49993 63-1.49993 60ZM1.50008 66 1.50008 69-1.49992 69-1.49992 66ZM1.50008 72 1.50009 75-1.49991 75-1.49992 72ZM1.50009 78 1.50009 79.8928-1.49991 79.8928-1.49991 78ZM9.43574e-05 79.8928 7.50009 73.8928 0.000104987 88.8928-7.49991 73.8928Z" transform="matrix(1 0 0 -1 293.5 291.393)"/><path d="M515 352.5 515 355.5 512 355.5 512 352.5ZM515 358.5 515 361.5 512 361.5 512 358.5ZM515 364.5 515 367.5 512 367.5 512 364.5ZM515 370.5 515 373.5 512 373.5 512 370.5ZM515 376.5 515 379.5 512 379.5 512 376.5ZM515 382.5 515 384.586 512 384.586 512 382.5ZM513.5 384.586 521 378.586 513.5 393.586 506 378.586Z"/><path d="M661.5 421.5 759.509 421.5" stroke="#000000" stroke-width="3" stroke-miterlimit="8" stroke-dasharray="3 3" fill="none" fill-rule="evenodd"/><path d="M758 419.63 758 416.63 761 416.63 761 419.63ZM758 413.63 758 410.63 761 410.63 761 413.63ZM758 407.63 758 404.63 761 404.63 761 407.63ZM758 401.63 758 398.63 761 398.63 761 401.63ZM758 395.63 758 392.63 761 392.63 761 395.63ZM758 389.63 758 386.63 761 386.63 761 389.63ZM758 383.63 758 380.63 761 380.63 761 383.63ZM758 377.63 758 374.63 761 374.63 761 377.63ZM758 371.63 758 368.63 761 368.63 761 371.63ZM758 365.63 758 362.63 761 362.63 761 365.63ZM758 359.63 758 356.63 761 356.63 761 359.63ZM758 353.63 758 350.63 761 350.63 761 353.63ZM758 347.63 758 346.5 761 346.5 761 347.63ZM759.5 346.5 752 352.5 759.5 337.5 767 352.5Z"/><text font-family="Calibri,Calibri_MSFontService,sans-serif" font-weight="400" font-size="19" transform="translate(690.939 410)">trigger</text><text font-family="Calibri,Calibri_MSFontService,sans-serif" font-weight="400" font-size="16" transform="matrix(-1.83697e-16 -1 1 -1.83697e-16 274.082 268)">read</text><text fill="#FFFFFF" font-family="Calibri,Calibri_MSFontService,sans-serif" font-weight="400" font-size="16" transform="matrix(-1.83697e-16 -1 1 -1.83697e-16 323.618 258)">write</text><text fill="#FFFFFF" font-family="Calibri,Calibri_MSFontService,sans-serif" font-weight="400" font-size="16" transform="translate(419.457 200)">write</text><text fill="#FFFFFF" font-family="Calibri,Calibri_MSFontService,sans-serif" font-weight="400" font-size="16" transform="translate(154.313 316)">write</text><text font-family="Calibri,Calibri_MSFontService,sans-serif" font-weight="400" font-size="16" transform="translate(434.099 158)">read</text><text font-family="Calibri,Calibri_MSFontService,sans-serif" font-weight="400" font-size="16" transform="translate(667.306 314)">r</text><text font-family="Calibri,Calibri_MSFontService,sans-serif" font-weight="400" font-size="16" transform="translate(541.289 373)">r</text><text fill="#FFFFFF" font-family="Calibri,Calibri_MSFontService,sans-serif" font-weight="400" font-size="16" transform="translate(964.742 334)">w</text><text font-family="Calibri,Calibri_MSFontService,sans-serif" font-weight="400" font-size="19" transform="translate(452.346 375)">trigger</text><path d="M0 7.74999 22.5 7.74999 22.5 0 38 15.5 22.5 31 22.5 23.25 0 23.25Z" stroke="#000000" stroke-width="2" stroke-miterlimit="8" fill="none" fill-rule="evenodd" transform="matrix(-1 0 0 1 994 274)"/><text font-family="Calibri,Calibri_MSFontService,sans-serif" font-weight="400" font-size="16" transform="translate(977.355 294)">r</text><path d="M552.25 72.9999 552.25 131.5 560 131.5 544.5 147 529 131.5 536.75 131.5 536.75 72.9999Z" stroke="#000000" stroke-width="2" stroke-miterlimit="8" fill="#0D0D0D" fill-rule="evenodd"/><text fill="#FFFFFF" font-family="Calibri,Calibri_MSFontService,sans-serif" font-weight="400" font-size="16" transform="matrix(-1.83697e-16 -1 1 -1.83697e-16 549.081 120)">write</text><path d="M1111.25 72.9999 1111.25 131.5 1119 131.5 1103.5 147 1088 131.5 1095.75 131.5 1095.75 72.9999Z" stroke="#000000" stroke-width="2" stroke-miterlimit="8" fill="#0D0D0D" fill-rule="evenodd"/><text fill="#FFFFFF" font-family="Calibri,Calibri_MSFontService,sans-serif" font-weight="400" font-size="16" transform="matrix(-1.83697e-16 -1 1 -1.83697e-16 1107.63 120)">write</text><text font-family="Calibri,Calibri_MSFontService,sans-serif" font-weight="400" font-size="19" transform="translate(474.365 49)">from DTDL “main”</text><text font-family="Calibri,Calibri_MSFontService,sans-serif" font-weight="400" font-size="19" transform="translate(1029.6 49)">from DTDL “</text><text font-family="Calibri,Calibri_MSFontService,sans-serif" font-weight="400" font-size="19" transform="translate(1122.1 49)">vNext</text><text font-family="Calibri,Calibri_MSFontService,sans-serif" font-weight="400" font-size="19" transform="translate(1166.85 49)">”</text><text font-family="Calibri,Calibri_MSFontService,sans-serif" font-weight="400" font-size="19" transform="translate(77.0571 314)">user</text></g></svg>