<?xml version="1.0" encoding="UTF-8" standalone="no"?>
<!DOCTYPE svg PUBLIC "-//W3C//DTD SVG 1.1//EN"
 "http://www.w3.org/Graphics/SVG/1.1/DTD/svg11.dtd">
<!-- Generated by graphviz version 12.1.2 (20240928.0832)
 -->
<!-- Pages: 1 -->
<svg width="803pt" height="44pt"
 viewBox="0.00 0.00 802.62 44.00" xmlns="http://www.w3.org/2000/svg" xmlns:xlink="http://www.w3.org/1999/xlink">
<g id="graph0" class="graph" transform="scale(1 1) rotate(0) translate(4 40)">
<polygon fill="white" stroke="none" points="-4,4 -4,-40 798.62,-40 798.62,4 -4,4"/>
<!-- source folder -->
<g id="node1" class="node">
<title>source folder</title>
<polygon fill="none" stroke="black" points="87.25,-36 84.25,-40 63.25,-40 60.25,-36 0,-36 0,0 87.25,0 87.25,-36"/>
<text text-anchor="middle" x="43.62" y="-12.95" font-family="Times New Roman,serif" font-size="14.00">source folder</text>
</g>
<!-- JSON -->
<g id="node2" class="node">
<title>JSON</title>
<polygon fill="none" stroke="black" points="159.62,-36 105.62,-36 105.62,0 159.62,0 159.62,-36"/>
<text text-anchor="middle" x="132.62" y="-12.95" font-family="Times New Roman,serif" font-size="14.00">JSON</text>
</g>
<!-- pipeline step -->
<g id="node3" class="node">
<title>pipeline step</title>
<path fill="none" stroke="black" d="M263.12,-32.73C263.12,-34.53 244.08,-36 220.62,-36 197.17,-36 178.12,-34.53 178.12,-32.73 178.12,-32.73 178.12,-3.27 178.12,-3.27 178.12,-1.47 197.17,0 220.62,0 244.08,0 263.12,-1.47 263.12,-3.27 263.12,-3.27 263.12,-32.73 263.12,-32.73"/>
<path fill="none" stroke="black" d="M263.12,-32.73C263.12,-30.92 244.08,-29.45 220.62,-29.45 197.17,-29.45 178.12,-30.92 178.12,-32.73"/>
<text text-anchor="middle" x="220.62" y="-12.95" font-family="Times New Roman,serif" font-size="14.00">pipeline step</text>
</g>
<!-- EXE or DLL -->
<g id="node4" class="node">
<title>EXE or DLL</title>
<ellipse fill="none" stroke="black" cx="340.62" cy="-18" rx="59.54" ry="18"/>
<text text-anchor="middle" x="340.62" y="-12.95" font-family="Times New Roman,serif" font-size="14.00">EXE or DLL</text>
</g>
<!-- XML or HTML -->
<g id="node5" class="node">
<title>XML or HTML</title>
<polygon fill="none" stroke="black" points="582.97,-18 541.8,-36 459.45,-36 418.28,-18 459.45,0 541.8,0 582.97,-18"/>
<text text-anchor="middle" x="500.62" y="-12.95" font-family="Times New Roman,serif" font-size="14.00">XML or HTML</text>
</g>
<!-- NuGet package -->
<g id="node6" class="node">
<title>NuGet package</title>
<polygon fill="none" stroke="black" points="700.62,-36 604.62,-36 600.62,-32 600.62,0 696.62,0 700.62,-4 700.62,-36"/>
<polyline fill="none" stroke="black" points="696.62,-32 600.62,-32"/>
<polyline fill="none" stroke="black" points="696.62,-32 696.62,0"/>
<polyline fill="none" stroke="black" points="696.62,-32 700.62,-36"/>
<text text-anchor="middle" x="650.62" y="-12.95" font-family="Times New Roman,serif" font-size="14.00">NuGet package</text>
</g>
<!-- Markdown -->
<g id="node7" class="node">
<title>Markdown</title>
<polygon fill="none" stroke="black" points="788.62,-36 718.62,-36 718.62,0 794.62,0 794.62,-30 788.62,-36"/>
<polyline fill="none" stroke="black" points="788.62,-36 788.62,-30"/>
<polyline fill="none" stroke="black" points="794.62,-30 788.62,-30"/>
<text text-anchor="middle" x="756.62" y="-12.95" font-family="Times New Roman,serif" font-size="14.00">Markdown</text>
</g>
</g>
</svg>
