<?xml version="1.0" encoding="UTF-8" standalone="no"?>
<!DOCTYPE svg PUBLIC "-//W3C//DTD SVG 1.1//EN"
 "http://www.w3.org/Graphics/SVG/1.1/DTD/svg11.dtd">
<!-- Generated by graphviz version 2.43.0 (0)
 -->
<!-- Title: %3 Pages: 1 -->
<svg width="917pt" height="44pt"
 viewBox="0.00 0.00 917.00 44.00" xmlns="http://www.w3.org/2000/svg" xmlns:xlink="http://www.w3.org/1999/xlink">
<g id="graph0" class="graph" transform="scale(1 1) rotate(0) translate(4 40)">
<title>%3</title>
<polygon fill="white" stroke="transparent" points="-4,4 -4,-40 913,-40 913,4 -4,4"/>
<!-- source folder -->
<g id="node1" class="node">
<title>source folder</title>
<polygon fill="none" stroke="black" points="110,-36 107,-40 86,-40 83,-36 0,-36 0,0 110,0 110,-36"/>
<text text-anchor="middle" x="55" y="-14.3" font-family="Times,serif" font-size="14.00">source folder</text>
</g>
<!-- JSON -->
<g id="node2" class="node">
<title>JSON</title>
<polygon fill="none" stroke="black" points="183.5,-36 128.5,-36 128.5,0 183.5,0 183.5,-36"/>
<text text-anchor="middle" x="156" y="-14.3" font-family="Times,serif" font-size="14.00">JSON</text>
</g>
<!-- pipeline step -->
<g id="node3" class="node">
<title>pipeline step</title>
<path fill="none" stroke="black" d="M310.5,-32.73C310.5,-34.53 286.07,-36 256,-36 225.93,-36 201.5,-34.53 201.5,-32.73 201.5,-32.73 201.5,-3.27 201.5,-3.27 201.5,-1.47 225.93,0 256,0 286.07,0 310.5,-1.47 310.5,-3.27 310.5,-3.27 310.5,-32.73 310.5,-32.73"/>
<path fill="none" stroke="black" d="M310.5,-32.73C310.5,-30.92 286.07,-29.45 256,-29.45 225.93,-29.45 201.5,-30.92 201.5,-32.73"/>
<text text-anchor="middle" x="256" y="-14.3" font-family="Times,serif" font-size="14.00">pipeline step</text>
</g>
<!-- EXE or DLL -->
<g id="node4" class="node">
<title>EXE or DLL</title>
<ellipse fill="none" stroke="black" cx="394" cy="-18" rx="65.79" ry="18"/>
<text text-anchor="middle" x="394" y="-14.3" font-family="Times,serif" font-size="14.00">EXE or DLL</text>
</g>
<!-- XML or HTML -->
<g id="node5" class="node">
<title>XML or HTML</title>
<polygon fill="none" stroke="black" points="654.62,-18 610.31,-36 521.69,-36 477.38,-18 521.69,0 610.31,0 654.62,-18"/>
<text text-anchor="middle" x="566" y="-14.3" font-family="Times,serif" font-size="14.00">XML or HTML</text>
</g>
<!-- NuGet package -->
<g id="node6" class="node">
<title>NuGet package</title>
<polygon fill="none" stroke="black" points="799,-36 677,-36 673,-32 673,0 795,0 799,-4 799,-36"/>
<polyline fill="none" stroke="black" points="795,-32 673,-32 "/>
<polyline fill="none" stroke="black" points="795,-32 795,0 "/>
<polyline fill="none" stroke="black" points="795,-32 799,-36 "/>
<text text-anchor="middle" x="736" y="-14.3" font-family="Times,serif" font-size="14.00">NuGet package</text>
</g>
<!-- Markdown -->
<g id="node7" class="node">
<title>Markdown</title>
<polygon fill="none" stroke="black" points="903,-36 817,-36 817,0 909,0 909,-30 903,-36"/>
<polyline fill="none" stroke="black" points="903,-36 903,-30 "/>
<polyline fill="none" stroke="black" points="909,-30 903,-30 "/>
<text text-anchor="middle" x="863" y="-14.3" font-family="Times,serif" font-size="14.00">Markdown</text>
</g>
</g>
</svg>
