<?xml version="1.0" encoding="UTF-8" standalone="no"?>
<!DOCTYPE svg PUBLIC "-//W3C//DTD SVG 1.1//EN"
 "http://www.w3.org/Graphics/SVG/1.1/DTD/svg11.dtd">
<!-- Generated by graphviz version 7.1.0 (20230121.1956)
 -->
<!-- Pages: 1 -->
<svg width="801pt" height="44pt"
 viewBox="0.00 0.00 801.00 44.00" xmlns="http://www.w3.org/2000/svg" xmlns:xlink="http://www.w3.org/1999/xlink">
<g id="graph0" class="graph" transform="scale(1 1) rotate(0) translate(4 40)">
<polygon fill="white" stroke="none" points="-4,4 -4,-40 797,-40 797,4 -4,4"/>
<!-- source folder -->
<g id="node1" class="node">
<title>source folder</title>
<polygon fill="none" stroke="black" points="91,-36 88,-40 67,-40 64,-36 0,-36 0,0 91,0 91,-36"/>
<text text-anchor="middle" x="45.5" y="-14.3" font-family="Times New Roman,serif" font-size="14.00">source folder</text>
</g>
<!-- JSON -->
<g id="node2" class="node">
<title>JSON</title>
<polygon fill="none" stroke="black" points="163.5,-36 109.5,-36 109.5,0 163.5,0 163.5,-36"/>
<text text-anchor="middle" x="136.5" y="-14.3" font-family="Times New Roman,serif" font-size="14.00">JSON</text>
</g>
<!-- pipeline step -->
<g id="node3" class="node">
<title>pipeline step</title>
<path fill="none" stroke="black" d="M267.5,-32.73C267.5,-34.53 248.23,-36 224.5,-36 200.77,-36 181.5,-34.53 181.5,-32.73 181.5,-32.73 181.5,-3.27 181.5,-3.27 181.5,-1.47 200.77,0 224.5,0 248.23,0 267.5,-1.47 267.5,-3.27 267.5,-3.27 267.5,-32.73 267.5,-32.73"/>
<path fill="none" stroke="black" d="M267.5,-32.73C267.5,-30.92 248.23,-29.45 224.5,-29.45 200.77,-29.45 181.5,-30.92 181.5,-32.73"/>
<text text-anchor="middle" x="224.5" y="-14.3" font-family="Times New Roman,serif" font-size="14.00">pipeline step</text>
</g>
<!-- EXE or DLL -->
<g id="node4" class="node">
<title>EXE or DLL</title>
<ellipse fill="none" stroke="black" cx="343.5" cy="-18" rx="57.69" ry="18"/>
<text text-anchor="middle" x="343.5" y="-14.3" font-family="Times New Roman,serif" font-size="14.00">EXE or DLL</text>
</g>
<!-- XML or HTML -->
<g id="node5" class="node">
<title>XML or HTML</title>
<polygon fill="none" stroke="black" points="577.1,-18 537.8,-36 459.2,-36 419.9,-18 459.2,0 537.8,0 577.1,-18"/>
<text text-anchor="middle" x="498.5" y="-14.3" font-family="Times New Roman,serif" font-size="14.00">XML or HTML</text>
</g>
<!-- NuGet package -->
<g id="node6" class="node">
<title>NuGet package</title>
<polygon fill="none" stroke="black" points="698,-36 599,-36 595,-32 595,0 694,0 698,-4 698,-36"/>
<polyline fill="none" stroke="black" points="694,-32 595,-32"/>
<polyline fill="none" stroke="black" points="694,-32 694,0"/>
<polyline fill="none" stroke="black" points="694,-32 698,-36"/>
<text text-anchor="middle" x="646.5" y="-14.3" font-family="Times New Roman,serif" font-size="14.00">NuGet package</text>
</g>
<!-- Markdown -->
<g id="node7" class="node">
<title>Markdown</title>
<polygon fill="none" stroke="black" points="787,-36 716,-36 716,0 793,0 793,-30 787,-36"/>
<polyline fill="none" stroke="black" points="787,-36 787,-30"/>
<polyline fill="none" stroke="black" points="793,-30 787,-30"/>
<text text-anchor="middle" x="754.5" y="-14.3" font-family="Times New Roman,serif" font-size="14.00">Markdown</text>
</g>
</g>
</svg>
